solid ASCII
  facet normal -0.000000e+00 0.000000e+00 1.000000e+00
    outer loop
      vertex   -4.400000e+01 4.000000e+00 1.000000e+01
      vertex   -4.400000e+01 0.000000e+00 1.000000e+01
      vertex   0.000000e+00 4.000000e+00 1.000000e+01
    endloop
  endfacet
  facet normal 0.000000e+00 0.000000e+00 1.000000e+00
    outer loop
      vertex   0.000000e+00 4.000000e+00 1.000000e+01
      vertex   -4.400000e+01 0.000000e+00 1.000000e+01
      vertex   0.000000e+00 0.000000e+00 1.000000e+01
    endloop
  endfacet
  facet normal 0.000000e+00 1.000000e+00 0.000000e+00
    outer loop
      vertex   -4.400000e+01 4.000000e+00 8.000000e+00
      vertex   -4.400000e+01 4.000000e+00 1.000000e+01
      vertex   0.000000e+00 4.000000e+00 8.000000e+00
    endloop
  endfacet
  facet normal 0.000000e+00 1.000000e+00 -0.000000e+00
    outer loop
      vertex   0.000000e+00 4.000000e+00 8.000000e+00
      vertex   -4.400000e+01 4.000000e+00 1.000000e+01
      vertex   0.000000e+00 4.000000e+00 1.000000e+01
    endloop
  endfacet
  facet normal 0.000000e+00 0.000000e+00 -1.000000e+00
    outer loop
      vertex   -4.400000e+01 0.000000e+00 8.000000e+00
      vertex   -4.400000e+01 4.000000e+00 8.000000e+00
      vertex   0.000000e+00 0.000000e+00 8.000000e+00
    endloop
  endfacet
  facet normal 0.000000e+00 0.000000e+00 -1.000000e+00
    outer loop
      vertex   0.000000e+00 0.000000e+00 8.000000e+00
      vertex   -4.400000e+01 4.000000e+00 8.000000e+00
      vertex   0.000000e+00 4.000000e+00 8.000000e+00
    endloop
  endfacet
  facet normal -0.000000e+00 1.000000e+00 0.000000e+00
    outer loop
      vertex   -4.400000e+01 0.000000e+00 8.000000e+00
      vertex   0.000000e+00 0.000000e+00 8.000000e+00
      vertex   -4.400000e+01 0.000000e+00 6.000000e+00
    endloop
  endfacet
  facet normal 0.000000e+00 1.000000e+00 0.000000e+00
    outer loop
      vertex   -4.400000e+01 0.000000e+00 6.000000e+00
      vertex   0.000000e+00 0.000000e+00 8.000000e+00
      vertex   0.000000e+00 0.000000e+00 6.000000e+00
    endloop
  endfacet
  facet normal 0.000000e+00 1.000000e+00 -0.000000e+00
    outer loop
      vertex   0.000000e+00 0.000000e+00 1.000000e+01
      vertex   -4.400000e+01 0.000000e+00 1.000000e+01
      vertex   0.000000e+00 0.000000e+00 1.500000e+01
    endloop
  endfacet
  facet normal 0.000000e+00 1.000000e+00 0.000000e+00
    outer loop
      vertex   0.000000e+00 0.000000e+00 1.500000e+01
      vertex   -4.400000e+01 0.000000e+00 1.000000e+01
      vertex   -4.400000e+01 0.000000e+00 1.500000e+01
    endloop
  endfacet
  facet normal 0.000000e+00 -1.000000e+00 0.000000e+00
    outer loop
      vertex   -4.400000e+01 5.600000e+01 6.000000e+00
      vertex   -4.400000e+01 5.600000e+01 4.000000e+00
      vertex   0.000000e+00 5.600000e+01 6.000000e+00
    endloop
  endfacet
  facet normal 0.000000e+00 -1.000000e+00 -0.000000e+00
    outer loop
      vertex   0.000000e+00 5.600000e+01 6.000000e+00
      vertex   -4.400000e+01 5.600000e+01 4.000000e+00
      vertex   0.000000e+00 5.600000e+01 4.000000e+00
    endloop
  endfacet
  facet normal -0.000000e+00 0.000000e+00 1.000000e+00
    outer loop
      vertex   -4.400000e+01 6.000000e+01 6.000000e+00
      vertex   -4.400000e+01 5.600000e+01 6.000000e+00
      vertex   0.000000e+00 6.000000e+01 6.000000e+00
    endloop
  endfacet
  facet normal 0.000000e+00 0.000000e+00 1.000000e+00
    outer loop
      vertex   0.000000e+00 6.000000e+01 6.000000e+00
      vertex   -4.400000e+01 5.600000e+01 6.000000e+00
      vertex   0.000000e+00 5.600000e+01 6.000000e+00
    endloop
  endfacet
  facet normal 0.000000e+00 0.000000e+00 -1.000000e+00
    outer loop
      vertex   -4.400000e+01 5.600000e+01 4.000000e+00
      vertex   -4.400000e+01 6.000000e+01 4.000000e+00
      vertex   0.000000e+00 5.600000e+01 4.000000e+00
    endloop
  endfacet
  facet normal 0.000000e+00 0.000000e+00 -1.000000e+00
    outer loop
      vertex   0.000000e+00 5.600000e+01 4.000000e+00
      vertex   -4.400000e+01 6.000000e+01 4.000000e+00
      vertex   0.000000e+00 6.000000e+01 4.000000e+00
    endloop
  endfacet
  facet normal 0.000000e+00 -1.000000e+00 0.000000e+00
    outer loop
      vertex   -4.400000e+01 6.000000e+01 6.000000e+00
      vertex   0.000000e+00 6.000000e+01 6.000000e+00
      vertex   -4.400000e+01 6.000000e+01 8.000000e+00
    endloop
  endfacet
  facet normal 0.000000e+00 -1.000000e+00 0.000000e+00
    outer loop
      vertex   -4.400000e+01 6.000000e+01 8.000000e+00
      vertex   0.000000e+00 6.000000e+01 6.000000e+00
      vertex   0.000000e+00 6.000000e+01 8.000000e+00
    endloop
  endfacet
  facet normal 0.000000e+00 0.000000e+00 -1.000000e+00
    outer loop
      vertex   -4.400000e+01 0.000000e+00 4.000000e+00
      vertex   -4.400000e+01 4.000000e+00 4.000000e+00
      vertex   0.000000e+00 0.000000e+00 4.000000e+00
    endloop
  endfacet
  facet normal 0.000000e+00 0.000000e+00 -1.000000e+00
    outer loop
      vertex   0.000000e+00 0.000000e+00 4.000000e+00
      vertex   -4.400000e+01 4.000000e+00 4.000000e+00
      vertex   0.000000e+00 4.000000e+00 4.000000e+00
    endloop
  endfacet
  facet normal -0.000000e+00 0.000000e+00 1.000000e+00
    outer loop
      vertex   -4.400000e+01 4.000000e+00 6.000000e+00
      vertex   -4.400000e+01 0.000000e+00 6.000000e+00
      vertex   0.000000e+00 4.000000e+00 6.000000e+00
    endloop
  endfacet
  facet normal 0.000000e+00 0.000000e+00 1.000000e+00
    outer loop
      vertex   0.000000e+00 4.000000e+00 6.000000e+00
      vertex   -4.400000e+01 0.000000e+00 6.000000e+00
      vertex   0.000000e+00 0.000000e+00 6.000000e+00
    endloop
  endfacet
  facet normal 0.000000e+00 1.000000e+00 0.000000e+00
    outer loop
      vertex   -4.400000e+01 4.000000e+00 4.000000e+00
      vertex   -4.400000e+01 4.000000e+00 6.000000e+00
      vertex   0.000000e+00 4.000000e+00 4.000000e+00
    endloop
  endfacet
  facet normal 0.000000e+00 1.000000e+00 -0.000000e+00
    outer loop
      vertex   0.000000e+00 4.000000e+00 4.000000e+00
      vertex   -4.400000e+01 4.000000e+00 6.000000e+00
      vertex   0.000000e+00 4.000000e+00 6.000000e+00
    endloop
  endfacet
  facet normal -0.000000e+00 1.000000e+00 3.081488e-32
    outer loop
      vertex   -4.400000e+01 0.000000e+00 4.000000e+00
      vertex   0.000000e+00 0.000000e+00 4.000000e+00
      vertex   -4.400000e+01 1.232595e-31 0.000000e+00
    endloop
  endfacet
  facet normal 2.801353e-33 1.000000e+00 0.000000e+00
    outer loop
      vertex   -4.400000e+01 1.232595e-31 0.000000e+00
      vertex   0.000000e+00 0.000000e+00 4.000000e+00
      vertex   0.000000e+00 0.000000e+00 0.000000e+00
    endloop
  endfacet
  facet normal 0.000000e+00 -1.000000e+00 0.000000e+00
    outer loop
      vertex   -4.400000e+01 5.600000e+01 1.000000e+01
      vertex   -4.400000e+01 5.600000e+01 8.000000e+00
      vertex   0.000000e+00 5.600000e+01 1.000000e+01
    endloop
  endfacet
  facet normal 0.000000e+00 -1.000000e+00 -0.000000e+00
    outer loop
      vertex   0.000000e+00 5.600000e+01 1.000000e+01
      vertex   -4.400000e+01 5.600000e+01 8.000000e+00
      vertex   0.000000e+00 5.600000e+01 8.000000e+00
    endloop
  endfacet
  facet normal -0.000000e+00 0.000000e+00 1.000000e+00
    outer loop
      vertex   -4.400000e+01 6.000000e+01 1.000000e+01
      vertex   -4.400000e+01 5.600000e+01 1.000000e+01
      vertex   0.000000e+00 6.000000e+01 1.000000e+01
    endloop
  endfacet
  facet normal 0.000000e+00 0.000000e+00 1.000000e+00
    outer loop
      vertex   0.000000e+00 6.000000e+01 1.000000e+01
      vertex   -4.400000e+01 5.600000e+01 1.000000e+01
      vertex   0.000000e+00 5.600000e+01 1.000000e+01
    endloop
  endfacet
  facet normal 0.000000e+00 0.000000e+00 -1.000000e+00
    outer loop
      vertex   -4.400000e+01 5.600000e+01 8.000000e+00
      vertex   -4.400000e+01 6.000000e+01 8.000000e+00
      vertex   0.000000e+00 5.600000e+01 8.000000e+00
    endloop
  endfacet
  facet normal 0.000000e+00 0.000000e+00 -1.000000e+00
    outer loop
      vertex   0.000000e+00 5.600000e+01 8.000000e+00
      vertex   -4.400000e+01 6.000000e+01 8.000000e+00
      vertex   0.000000e+00 6.000000e+01 8.000000e+00
    endloop
  endfacet
  facet normal 0.000000e+00 -1.000000e+00 0.000000e+00
    outer loop
      vertex   -4.400000e+01 6.000000e+01 1.000000e+01
      vertex   0.000000e+00 6.000000e+01 1.000000e+01
      vertex   -4.400000e+01 6.000000e+01 1.500000e+01
    endloop
  endfacet
  facet normal 0.000000e+00 -1.000000e+00 0.000000e+00
    outer loop
      vertex   -4.400000e+01 6.000000e+01 1.500000e+01
      vertex   0.000000e+00 6.000000e+01 1.000000e+01
      vertex   0.000000e+00 6.000000e+01 1.500000e+01
    endloop
  endfacet
  facet normal -0.000000e+00 0.000000e+00 1.000000e+00
    outer loop
      vertex   -4.400000e+01 0.000000e+00 1.500000e+01
      vertex   -4.400000e+01 -4.000000e+00 1.500000e+01
      vertex   0.000000e+00 0.000000e+00 1.500000e+01
    endloop
  endfacet
  facet normal 0.000000e+00 0.000000e+00 1.000000e+00
    outer loop
      vertex   0.000000e+00 0.000000e+00 1.500000e+01
      vertex   -4.400000e+01 -4.000000e+00 1.500000e+01
      vertex   4.000000e+00 -4.000000e+00 1.500000e+01
    endloop
  endfacet
  facet normal -0.000000e+00 0.000000e+00 1.000000e+00
    outer loop
      vertex   0.000000e+00 0.000000e+00 1.500000e+01
      vertex   4.000000e+00 -4.000000e+00 1.500000e+01
      vertex   0.000000e+00 6.000000e+01 1.500000e+01
    endloop
  endfacet
  facet normal -0.000000e+00 0.000000e+00 1.000000e+00
    outer loop
      vertex   0.000000e+00 6.000000e+01 1.500000e+01
      vertex   4.000000e+00 -4.000000e+00 1.500000e+01
      vertex   4.000000e+00 6.400000e+01 1.500000e+01
    endloop
  endfacet
  facet normal 0.000000e+00 -0.000000e+00 1.000000e+00
    outer loop
      vertex   0.000000e+00 6.000000e+01 1.500000e+01
      vertex   4.000000e+00 6.400000e+01 1.500000e+01
      vertex   -4.400000e+01 6.400000e+01 1.500000e+01
    endloop
  endfacet
  facet normal 0.000000e+00 0.000000e+00 1.000000e+00
    outer loop
      vertex   -4.400000e+01 6.400000e+01 1.500000e+01
      vertex   -4.400000e+01 6.000000e+01 1.500000e+01
      vertex   0.000000e+00 6.000000e+01 1.500000e+01
    endloop
  endfacet
  facet normal -1.000000e+00 -0.000000e+00 -0.000000e+00
    outer loop
      vertex   -4.400000e+01 0.000000e+00 1.500000e+01
      vertex   -4.400000e+01 0.000000e+00 1.000000e+01
      vertex   -4.400000e+01 -4.000000e+00 1.500000e+01
    endloop
  endfacet
  facet normal -1.000000e+00 0.000000e+00 0.000000e+00
    outer loop
      vertex   -4.400000e+01 -4.000000e+00 1.500000e+01
      vertex   -4.400000e+01 0.000000e+00 1.000000e+01
      vertex   -4.400000e+01 0.000000e+00 8.000000e+00
    endloop
  endfacet
  facet normal -1.000000e+00 0.000000e+00 0.000000e+00
    outer loop
      vertex   -4.400000e+01 -4.000000e+00 1.500000e+01
      vertex   -4.400000e+01 0.000000e+00 8.000000e+00
      vertex   -4.400000e+01 0.000000e+00 6.000000e+00
    endloop
  endfacet
  facet normal -1.000000e+00 0.000000e+00 0.000000e+00
    outer loop
      vertex   -4.400000e+01 0.000000e+00 1.000000e+01
      vertex   -4.400000e+01 4.000000e+00 1.000000e+01
      vertex   -4.400000e+01 0.000000e+00 8.000000e+00
    endloop
  endfacet
  facet normal -1.000000e+00 0.000000e+00 0.000000e+00
    outer loop
      vertex   -4.400000e+01 0.000000e+00 8.000000e+00
      vertex   -4.400000e+01 4.000000e+00 1.000000e+01
      vertex   -4.400000e+01 4.000000e+00 8.000000e+00
    endloop
  endfacet
  facet normal -1.000000e+00 -0.000000e+00 0.000000e+00
    outer loop
      vertex   -4.400000e+01 4.000000e+00 6.000000e+00
      vertex   -4.400000e+01 0.000000e+00 4.000000e+00
      vertex   -4.400000e+01 0.000000e+00 6.000000e+00
    endloop
  endfacet
  facet normal -1.000000e+00 0.000000e+00 -0.000000e+00
    outer loop
      vertex   -4.400000e+01 0.000000e+00 6.000000e+00
      vertex   -4.400000e+01 0.000000e+00 4.000000e+00
      vertex   -4.400000e+01 -4.000000e+00 -2.000000e+00
    endloop
  endfacet
  facet normal -1.000000e+00 -0.000000e+00 0.000000e+00
    outer loop
      vertex   -4.400000e+01 0.000000e+00 6.000000e+00
      vertex   -4.400000e+01 -4.000000e+00 -2.000000e+00
      vertex   -4.400000e+01 -4.000000e+00 1.500000e+01
    endloop
  endfacet
  facet normal -1.000000e+00 0.000000e+00 -0.000000e+00
    outer loop
      vertex   -4.400000e+01 4.000000e+00 6.000000e+00
      vertex   -4.400000e+01 4.000000e+00 4.000000e+00
      vertex   -4.400000e+01 0.000000e+00 4.000000e+00
    endloop
  endfacet
  facet normal -1.000000e+00 0.000000e+00 -0.000000e+00
    outer loop
      vertex   -4.400000e+01 0.000000e+00 4.000000e+00
      vertex   -4.400000e+01 1.232595e-31 0.000000e+00
      vertex   -4.400000e+01 -4.000000e+00 -2.000000e+00
    endloop
  endfacet
  facet normal -1.000000e+00 0.000000e+00 0.000000e+00
    outer loop
      vertex   -4.400000e+01 -4.000000e+00 -2.000000e+00
      vertex   -4.400000e+01 1.232595e-31 0.000000e+00
      vertex   -4.400000e+01 6.000000e+01 0.000000e+00
    endloop
  endfacet
  facet normal -1.000000e+00 0.000000e+00 0.000000e+00
    outer loop
      vertex   -4.400000e+01 -4.000000e+00 -2.000000e+00
      vertex   -4.400000e+01 6.000000e+01 0.000000e+00
      vertex   -4.400000e+01 6.400000e+01 -2.000000e+00
    endloop
  endfacet
  facet normal -1.000000e+00 0.000000e+00 0.000000e+00
    outer loop
      vertex   -4.400000e+01 6.400000e+01 -2.000000e+00
      vertex   -4.400000e+01 6.000000e+01 0.000000e+00
      vertex   -4.400000e+01 6.000000e+01 4.000000e+00
    endloop
  endfacet
  facet normal -1.000000e+00 0.000000e+00 0.000000e+00
    outer loop
      vertex   -4.400000e+01 6.400000e+01 -2.000000e+00
      vertex   -4.400000e+01 6.000000e+01 4.000000e+00
      vertex   -4.400000e+01 6.000000e+01 6.000000e+00
    endloop
  endfacet
  facet normal -1.000000e+00 0.000000e+00 -0.000000e+00
    outer loop
      vertex   -4.400000e+01 6.000000e+01 6.000000e+00
      vertex   -4.400000e+01 6.000000e+01 4.000000e+00
      vertex   -4.400000e+01 5.600000e+01 4.000000e+00
    endloop
  endfacet
  facet normal -1.000000e+00 -0.000000e+00 0.000000e+00
    outer loop
      vertex   -4.400000e+01 6.000000e+01 6.000000e+00
      vertex   -4.400000e+01 5.600000e+01 4.000000e+00
      vertex   -4.400000e+01 5.600000e+01 6.000000e+00
    endloop
  endfacet
  facet normal -1.000000e+00 0.000000e+00 0.000000e+00
    outer loop
      vertex   -4.400000e+01 6.400000e+01 -2.000000e+00
      vertex   -4.400000e+01 6.000000e+01 6.000000e+00
      vertex   -4.400000e+01 6.400000e+01 1.500000e+01
    endloop
  endfacet
  facet normal -1.000000e+00 0.000000e+00 0.000000e+00
    outer loop
      vertex   -4.400000e+01 6.400000e+01 1.500000e+01
      vertex   -4.400000e+01 6.000000e+01 6.000000e+00
      vertex   -4.400000e+01 6.000000e+01 8.000000e+00
    endloop
  endfacet
  facet normal -1.000000e+00 0.000000e+00 0.000000e+00
    outer loop
      vertex   -4.400000e+01 6.400000e+01 1.500000e+01
      vertex   -4.400000e+01 6.000000e+01 8.000000e+00
      vertex   -4.400000e+01 6.000000e+01 1.000000e+01
    endloop
  endfacet
  facet normal -1.000000e+00 0.000000e+00 -0.000000e+00
    outer loop
      vertex   -4.400000e+01 6.000000e+01 1.000000e+01
      vertex   -4.400000e+01 6.000000e+01 8.000000e+00
      vertex   -4.400000e+01 5.600000e+01 8.000000e+00
    endloop
  endfacet
  facet normal -1.000000e+00 -0.000000e+00 0.000000e+00
    outer loop
      vertex   -4.400000e+01 6.000000e+01 1.000000e+01
      vertex   -4.400000e+01 5.600000e+01 8.000000e+00
      vertex   -4.400000e+01 5.600000e+01 1.000000e+01
    endloop
  endfacet
  facet normal -1.000000e+00 0.000000e+00 0.000000e+00
    outer loop
      vertex   -4.400000e+01 6.000000e+01 1.000000e+01
      vertex   -4.400000e+01 6.000000e+01 1.500000e+01
      vertex   -4.400000e+01 6.400000e+01 1.500000e+01
    endloop
  endfacet
  facet normal -0.000000e+00 0.000000e+00 1.000000e+00
    outer loop
      vertex   -4.400000e+01 1.232595e-31 0.000000e+00
      vertex   0.000000e+00 0.000000e+00 0.000000e+00
      vertex   -4.400000e+01 6.000000e+01 0.000000e+00
    endloop
  endfacet
  facet normal -0.000000e+00 0.000000e+00 1.000000e+00
    outer loop
      vertex   -4.400000e+01 6.000000e+01 0.000000e+00
      vertex   0.000000e+00 0.000000e+00 0.000000e+00
      vertex   0.000000e+00 6.000000e+01 0.000000e+00
    endloop
  endfacet
  facet normal 0.000000e+00 0.000000e+00 -1.000000e+00
    outer loop
      vertex   -4.400000e+01 6.400000e+01 -2.000000e+00
      vertex   4.000000e+00 6.400000e+01 -2.000000e+00
      vertex   -4.400000e+01 -4.000000e+00 -2.000000e+00
    endloop
  endfacet
  facet normal 0.000000e+00 0.000000e+00 -1.000000e+00
    outer loop
      vertex   -4.400000e+01 -4.000000e+00 -2.000000e+00
      vertex   4.000000e+00 6.400000e+01 -2.000000e+00
      vertex   4.000000e+00 -4.000000e+00 -2.000000e+00
    endloop
  endfacet
  facet normal -1.000000e+00 0.000000e+00 0.000000e+00
    outer loop
      vertex   0.000000e+00 0.000000e+00 1.000000e+01
      vertex   0.000000e+00 0.000000e+00 1.500000e+01
      vertex   0.000000e+00 4.000000e+00 1.000000e+01
    endloop
  endfacet
  facet normal -1.000000e+00 0.000000e+00 0.000000e+00
    outer loop
      vertex   0.000000e+00 4.000000e+00 1.000000e+01
      vertex   0.000000e+00 0.000000e+00 1.500000e+01
      vertex   0.000000e+00 6.000000e+01 1.500000e+01
    endloop
  endfacet
  facet normal -1.000000e+00 0.000000e+00 0.000000e+00
    outer loop
      vertex   0.000000e+00 4.000000e+00 1.000000e+01
      vertex   0.000000e+00 6.000000e+01 1.500000e+01
      vertex   0.000000e+00 5.600000e+01 1.000000e+01
    endloop
  endfacet
  facet normal -1.000000e+00 0.000000e+00 0.000000e+00
    outer loop
      vertex   0.000000e+00 5.600000e+01 1.000000e+01
      vertex   0.000000e+00 6.000000e+01 1.500000e+01
      vertex   0.000000e+00 6.000000e+01 1.000000e+01
    endloop
  endfacet
  facet normal -1.000000e+00 0.000000e+00 0.000000e+00
    outer loop
      vertex   0.000000e+00 4.000000e+00 1.000000e+01
      vertex   0.000000e+00 5.600000e+01 1.000000e+01
      vertex   0.000000e+00 4.000000e+00 8.000000e+00
    endloop
  endfacet
  facet normal -1.000000e+00 0.000000e+00 0.000000e+00
    outer loop
      vertex   0.000000e+00 4.000000e+00 8.000000e+00
      vertex   0.000000e+00 5.600000e+01 1.000000e+01
      vertex   0.000000e+00 5.600000e+01 8.000000e+00
    endloop
  endfacet
  facet normal -1.000000e+00 0.000000e+00 0.000000e+00
    outer loop
      vertex   0.000000e+00 4.000000e+00 8.000000e+00
      vertex   0.000000e+00 5.600000e+01 8.000000e+00
      vertex   0.000000e+00 4.000000e+00 6.000000e+00
    endloop
  endfacet
  facet normal -1.000000e+00 0.000000e+00 0.000000e+00
    outer loop
      vertex   0.000000e+00 4.000000e+00 6.000000e+00
      vertex   0.000000e+00 5.600000e+01 8.000000e+00
      vertex   0.000000e+00 5.600000e+01 6.000000e+00
    endloop
  endfacet
  facet normal -1.000000e+00 0.000000e+00 0.000000e+00
    outer loop
      vertex   0.000000e+00 4.000000e+00 6.000000e+00
      vertex   0.000000e+00 5.600000e+01 6.000000e+00
      vertex   0.000000e+00 4.000000e+00 4.000000e+00
    endloop
  endfacet
  facet normal -1.000000e+00 0.000000e+00 0.000000e+00
    outer loop
      vertex   0.000000e+00 4.000000e+00 4.000000e+00
      vertex   0.000000e+00 5.600000e+01 6.000000e+00
      vertex   0.000000e+00 5.600000e+01 4.000000e+00
    endloop
  endfacet
  facet normal -1.000000e+00 0.000000e+00 -0.000000e+00
    outer loop
      vertex   0.000000e+00 4.000000e+00 4.000000e+00
      vertex   0.000000e+00 5.600000e+01 4.000000e+00
      vertex   0.000000e+00 0.000000e+00 0.000000e+00
    endloop
  endfacet
  facet normal -1.000000e+00 0.000000e+00 0.000000e+00
    outer loop
      vertex   0.000000e+00 0.000000e+00 0.000000e+00
      vertex   0.000000e+00 5.600000e+01 4.000000e+00
      vertex   0.000000e+00 6.000000e+01 0.000000e+00
    endloop
  endfacet
  facet normal -1.000000e+00 0.000000e+00 0.000000e+00
    outer loop
      vertex   0.000000e+00 6.000000e+01 0.000000e+00
      vertex   0.000000e+00 5.600000e+01 4.000000e+00
      vertex   0.000000e+00 6.000000e+01 4.000000e+00
    endloop
  endfacet
  facet normal -1.000000e+00 0.000000e+00 0.000000e+00
    outer loop
      vertex   0.000000e+00 5.600000e+01 8.000000e+00
      vertex   0.000000e+00 6.000000e+01 8.000000e+00
      vertex   0.000000e+00 5.600000e+01 6.000000e+00
    endloop
  endfacet
  facet normal -1.000000e+00 0.000000e+00 0.000000e+00
    outer loop
      vertex   0.000000e+00 5.600000e+01 6.000000e+00
      vertex   0.000000e+00 6.000000e+01 8.000000e+00
      vertex   0.000000e+00 6.000000e+01 6.000000e+00
    endloop
  endfacet
  facet normal -1.000000e+00 0.000000e+00 0.000000e+00
    outer loop
      vertex   0.000000e+00 0.000000e+00 0.000000e+00
      vertex   0.000000e+00 0.000000e+00 4.000000e+00
      vertex   0.000000e+00 4.000000e+00 4.000000e+00
    endloop
  endfacet
  facet normal -1.000000e+00 0.000000e+00 0.000000e+00
    outer loop
      vertex   0.000000e+00 4.000000e+00 6.000000e+00
      vertex   0.000000e+00 0.000000e+00 6.000000e+00
      vertex   0.000000e+00 4.000000e+00 8.000000e+00
    endloop
  endfacet
  facet normal -1.000000e+00 -0.000000e+00 0.000000e+00
    outer loop
      vertex   0.000000e+00 4.000000e+00 8.000000e+00
      vertex   0.000000e+00 0.000000e+00 6.000000e+00
      vertex   0.000000e+00 0.000000e+00 8.000000e+00
    endloop
  endfacet
  facet normal -0.000000e+00 -1.000000e+00 -0.000000e+00
    outer loop
      vertex   0.000000e+00 6.000000e+01 4.000000e+00
      vertex   -4.400000e+01 6.000000e+01 4.000000e+00
      vertex   0.000000e+00 6.000000e+01 0.000000e+00
    endloop
  endfacet
  facet normal 0.000000e+00 -1.000000e+00 0.000000e+00
    outer loop
      vertex   0.000000e+00 6.000000e+01 0.000000e+00
      vertex   -4.400000e+01 6.000000e+01 4.000000e+00
      vertex   -4.400000e+01 6.000000e+01 0.000000e+00
    endloop
  endfacet
  facet normal 1.000000e+00 0.000000e+00 0.000000e+00
    outer loop
      vertex   4.000000e+00 6.400000e+01 1.500000e+01
      vertex   4.000000e+00 -4.000000e+00 1.500000e+01
      vertex   4.000000e+00 6.400000e+01 -2.000000e+00
    endloop
  endfacet
  facet normal 1.000000e+00 0.000000e+00 0.000000e+00
    outer loop
      vertex   4.000000e+00 6.400000e+01 -2.000000e+00
      vertex   4.000000e+00 -4.000000e+00 1.500000e+01
      vertex   4.000000e+00 -4.000000e+00 -2.000000e+00
    endloop
  endfacet
  facet normal -0.000000e+00 -1.000000e+00 -0.000000e+00
    outer loop
      vertex   4.000000e+00 -4.000000e+00 1.500000e+01
      vertex   -4.400000e+01 -4.000000e+00 1.500000e+01
      vertex   4.000000e+00 -4.000000e+00 -2.000000e+00
    endloop
  endfacet
  facet normal 0.000000e+00 -1.000000e+00 0.000000e+00
    outer loop
      vertex   4.000000e+00 -4.000000e+00 -2.000000e+00
      vertex   -4.400000e+01 -4.000000e+00 1.500000e+01
      vertex   -4.400000e+01 -4.000000e+00 -2.000000e+00
    endloop
  endfacet
  facet normal -0.000000e+00 1.000000e+00 0.000000e+00
    outer loop
      vertex   -4.400000e+01 6.400000e+01 1.500000e+01
      vertex   4.000000e+00 6.400000e+01 1.500000e+01
      vertex   -4.400000e+01 6.400000e+01 -2.000000e+00
    endloop
  endfacet
  facet normal 0.000000e+00 1.000000e+00 0.000000e+00
    outer loop
      vertex   -4.400000e+01 6.400000e+01 -2.000000e+00
      vertex   4.000000e+00 6.400000e+01 1.500000e+01
      vertex   4.000000e+00 6.400000e+01 -2.000000e+00
    endloop
  endfacet
endsolid
