solid ASCII
  facet normal -1.000000e+00 -0.000000e+00 -0.000000e+00
    outer loop
      vertex   -1.900000e+01 0.000000e+00 8.000000e+01
      vertex   -1.900000e+01 0.000000e+00 7.600000e+01
      vertex   -1.900000e+01 -4.000000e+00 8.000000e+01
    endloop
  endfacet
  facet normal -1.000000e+00 0.000000e+00 0.000000e+00
    outer loop
      vertex   -1.900000e+01 -4.000000e+00 8.000000e+01
      vertex   -1.900000e+01 0.000000e+00 7.600000e+01
      vertex   -1.900000e+01 0.000000e+00 7.400000e+01
    endloop
  endfacet
  facet normal -1.000000e+00 0.000000e+00 0.000000e+00
    outer loop
      vertex   -1.900000e+01 -4.000000e+00 8.000000e+01
      vertex   -1.900000e+01 0.000000e+00 7.400000e+01
      vertex   -1.900000e+01 0.000000e+00 7.100000e+01
    endloop
  endfacet
  facet normal -1.000000e+00 -0.000000e+00 -0.000000e+00
    outer loop
      vertex   -1.900000e+01 4.000000e+00 7.600000e+01
      vertex   -1.900000e+01 4.000000e+00 7.400000e+01
      vertex   -1.900000e+01 0.000000e+00 7.600000e+01
    endloop
  endfacet
  facet normal -1.000000e+00 0.000000e+00 0.000000e+00
    outer loop
      vertex   -1.900000e+01 0.000000e+00 7.600000e+01
      vertex   -1.900000e+01 4.000000e+00 7.400000e+01
      vertex   -1.900000e+01 0.000000e+00 7.400000e+01
    endloop
  endfacet
  facet normal -1.000000e+00 -0.000000e+00 -0.000000e+00
    outer loop
      vertex   -1.900000e+01 4.000000e+00 7.100000e+01
      vertex   -1.900000e+01 4.000000e+00 6.900000e+01
      vertex   -1.900000e+01 0.000000e+00 7.100000e+01
    endloop
  endfacet
  facet normal -1.000000e+00 0.000000e+00 0.000000e+00
    outer loop
      vertex   -1.900000e+01 0.000000e+00 7.100000e+01
      vertex   -1.900000e+01 4.000000e+00 6.900000e+01
      vertex   -1.900000e+01 0.000000e+00 6.900000e+01
    endloop
  endfacet
  facet normal -1.000000e+00 0.000000e+00 -0.000000e+00
    outer loop
      vertex   -1.900000e+01 0.000000e+00 7.100000e+01
      vertex   -1.900000e+01 0.000000e+00 6.900000e+01
      vertex   -1.900000e+01 -4.000000e+00 6.300000e+01
    endloop
  endfacet
  facet normal -1.000000e+00 0.000000e+00 0.000000e+00
    outer loop
      vertex   -1.900000e+01 -4.000000e+00 6.300000e+01
      vertex   -1.900000e+01 0.000000e+00 6.900000e+01
      vertex   -1.900000e+01 1.232595e-31 6.500000e+01
    endloop
  endfacet
  facet normal -1.000000e+00 0.000000e+00 0.000000e+00
    outer loop
      vertex   -1.900000e+01 -4.000000e+00 6.300000e+01
      vertex   -1.900000e+01 1.232595e-31 6.500000e+01
      vertex   -1.900000e+01 6.200000e+01 6.500000e+01
    endloop
  endfacet
  facet normal -1.000000e+00 0.000000e+00 0.000000e+00
    outer loop
      vertex   -1.900000e+01 -4.000000e+00 6.300000e+01
      vertex   -1.900000e+01 6.200000e+01 6.500000e+01
      vertex   -1.900000e+01 6.600000e+01 6.300000e+01
    endloop
  endfacet
  facet normal -1.000000e+00 0.000000e+00 0.000000e+00
    outer loop
      vertex   -1.900000e+01 6.600000e+01 6.300000e+01
      vertex   -1.900000e+01 6.200000e+01 6.500000e+01
      vertex   -1.900000e+01 6.200000e+01 6.900000e+01
    endloop
  endfacet
  facet normal -1.000000e+00 0.000000e+00 0.000000e+00
    outer loop
      vertex   -1.900000e+01 6.600000e+01 6.300000e+01
      vertex   -1.900000e+01 6.200000e+01 6.900000e+01
      vertex   -1.900000e+01 6.200000e+01 7.100000e+01
    endloop
  endfacet
  facet normal -1.000000e+00 -0.000000e+00 -0.000000e+00
    outer loop
      vertex   -1.900000e+01 6.200000e+01 7.100000e+01
      vertex   -1.900000e+01 6.200000e+01 6.900000e+01
      vertex   -1.900000e+01 5.800000e+01 7.100000e+01
    endloop
  endfacet
  facet normal -1.000000e+00 0.000000e+00 0.000000e+00
    outer loop
      vertex   -1.900000e+01 5.800000e+01 7.100000e+01
      vertex   -1.900000e+01 6.200000e+01 6.900000e+01
      vertex   -1.900000e+01 5.800000e+01 6.900000e+01
    endloop
  endfacet
  facet normal -1.000000e+00 0.000000e+00 0.000000e+00
    outer loop
      vertex   -1.900000e+01 6.600000e+01 6.300000e+01
      vertex   -1.900000e+01 6.200000e+01 7.100000e+01
      vertex   -1.900000e+01 6.600000e+01 8.000000e+01
    endloop
  endfacet
  facet normal -1.000000e+00 0.000000e+00 0.000000e+00
    outer loop
      vertex   -1.900000e+01 6.600000e+01 8.000000e+01
      vertex   -1.900000e+01 6.200000e+01 7.100000e+01
      vertex   -1.900000e+01 6.200000e+01 7.400000e+01
    endloop
  endfacet
  facet normal -1.000000e+00 0.000000e+00 0.000000e+00
    outer loop
      vertex   -1.900000e+01 6.600000e+01 8.000000e+01
      vertex   -1.900000e+01 6.200000e+01 7.400000e+01
      vertex   -1.900000e+01 6.200000e+01 7.600000e+01
    endloop
  endfacet
  facet normal -1.000000e+00 -0.000000e+00 -0.000000e+00
    outer loop
      vertex   -1.900000e+01 6.200000e+01 7.600000e+01
      vertex   -1.900000e+01 6.200000e+01 7.400000e+01
      vertex   -1.900000e+01 5.800000e+01 7.600000e+01
    endloop
  endfacet
  facet normal -1.000000e+00 0.000000e+00 0.000000e+00
    outer loop
      vertex   -1.900000e+01 5.800000e+01 7.600000e+01
      vertex   -1.900000e+01 6.200000e+01 7.400000e+01
      vertex   -1.900000e+01 5.800000e+01 7.400000e+01
    endloop
  endfacet
  facet normal -1.000000e+00 0.000000e+00 0.000000e+00
    outer loop
      vertex   -1.900000e+01 6.200000e+01 7.600000e+01
      vertex   -1.900000e+01 6.200000e+01 8.000000e+01
      vertex   -1.900000e+01 6.600000e+01 8.000000e+01
    endloop
  endfacet
  facet normal -1.000000e+00 0.000000e+00 0.000000e+00
    outer loop
      vertex   -1.900000e+01 -4.000000e+00 6.300000e+01
      vertex   -1.900000e+01 -4.000000e+00 8.000000e+01
      vertex   -1.900000e+01 0.000000e+00 7.100000e+01
    endloop
  endfacet
  facet normal 0.000000e+00 -1.000000e+00 0.000000e+00
    outer loop
      vertex   -1.900000e+01 6.200000e+01 6.500000e+01
      vertex   1.232595e-31 6.200000e+01 6.500000e+01
      vertex   -1.900000e+01 6.200000e+01 6.900000e+01
    endloop
  endfacet
  facet normal 0.000000e+00 -1.000000e+00 0.000000e+00
    outer loop
      vertex   -1.900000e+01 6.200000e+01 6.900000e+01
      vertex   1.232595e-31 6.200000e+01 6.500000e+01
      vertex   0.000000e+00 6.200000e+01 6.900000e+01
    endloop
  endfacet
  facet normal -0.000000e+00 0.000000e+00 1.000000e+00
    outer loop
      vertex   -1.900000e+01 1.232595e-31 6.500000e+01
      vertex   0.000000e+00 0.000000e+00 6.500000e+01
      vertex   -1.900000e+01 6.200000e+01 6.500000e+01
    endloop
  endfacet
  facet normal -0.000000e+00 0.000000e+00 1.000000e+00
    outer loop
      vertex   -1.900000e+01 6.200000e+01 6.500000e+01
      vertex   0.000000e+00 0.000000e+00 6.500000e+01
      vertex   1.232595e-31 6.200000e+01 6.500000e+01
    endloop
  endfacet
  facet normal -0.000000e+00 1.000000e+00 3.081488e-32
    outer loop
      vertex   -1.900000e+01 0.000000e+00 6.900000e+01
      vertex   0.000000e+00 0.000000e+00 6.900000e+01
      vertex   -1.900000e+01 1.232595e-31 6.500000e+01
    endloop
  endfacet
  facet normal 6.487343e-33 1.000000e+00 0.000000e+00
    outer loop
      vertex   -1.900000e+01 1.232595e-31 6.500000e+01
      vertex   0.000000e+00 0.000000e+00 6.900000e+01
      vertex   0.000000e+00 0.000000e+00 6.500000e+01
    endloop
  endfacet
  facet normal 0.000000e+00 0.000000e+00 -1.000000e+00
    outer loop
      vertex   -1.900000e+01 0.000000e+00 6.900000e+01
      vertex   -1.900000e+01 4.000000e+00 6.900000e+01
      vertex   0.000000e+00 0.000000e+00 6.900000e+01
    endloop
  endfacet
  facet normal 0.000000e+00 0.000000e+00 -1.000000e+00
    outer loop
      vertex   0.000000e+00 0.000000e+00 6.900000e+01
      vertex   -1.900000e+01 4.000000e+00 6.900000e+01
      vertex   0.000000e+00 4.000000e+00 6.900000e+01
    endloop
  endfacet
  facet normal 0.000000e+00 1.000000e+00 0.000000e+00
    outer loop
      vertex   -1.900000e+01 4.000000e+00 6.900000e+01
      vertex   -1.900000e+01 4.000000e+00 7.100000e+01
      vertex   0.000000e+00 4.000000e+00 6.900000e+01
    endloop
  endfacet
  facet normal 0.000000e+00 1.000000e+00 -0.000000e+00
    outer loop
      vertex   0.000000e+00 4.000000e+00 6.900000e+01
      vertex   -1.900000e+01 4.000000e+00 7.100000e+01
      vertex   0.000000e+00 4.000000e+00 7.100000e+01
    endloop
  endfacet
  facet normal -0.000000e+00 0.000000e+00 1.000000e+00
    outer loop
      vertex   -1.900000e+01 4.000000e+00 7.100000e+01
      vertex   -1.900000e+01 0.000000e+00 7.100000e+01
      vertex   0.000000e+00 4.000000e+00 7.100000e+01
    endloop
  endfacet
  facet normal 0.000000e+00 0.000000e+00 1.000000e+00
    outer loop
      vertex   0.000000e+00 4.000000e+00 7.100000e+01
      vertex   -1.900000e+01 0.000000e+00 7.100000e+01
      vertex   0.000000e+00 0.000000e+00 7.100000e+01
    endloop
  endfacet
  facet normal -0.000000e+00 1.000000e+00 0.000000e+00
    outer loop
      vertex   -1.900000e+01 0.000000e+00 7.400000e+01
      vertex   0.000000e+00 0.000000e+00 7.400000e+01
      vertex   -1.900000e+01 0.000000e+00 7.100000e+01
    endloop
  endfacet
  facet normal 0.000000e+00 1.000000e+00 0.000000e+00
    outer loop
      vertex   -1.900000e+01 0.000000e+00 7.100000e+01
      vertex   0.000000e+00 0.000000e+00 7.400000e+01
      vertex   0.000000e+00 0.000000e+00 7.100000e+01
    endloop
  endfacet
  facet normal 0.000000e+00 0.000000e+00 -1.000000e+00
    outer loop
      vertex   -1.900000e+01 0.000000e+00 7.400000e+01
      vertex   -1.900000e+01 4.000000e+00 7.400000e+01
      vertex   0.000000e+00 0.000000e+00 7.400000e+01
    endloop
  endfacet
  facet normal 0.000000e+00 0.000000e+00 -1.000000e+00
    outer loop
      vertex   0.000000e+00 0.000000e+00 7.400000e+01
      vertex   -1.900000e+01 4.000000e+00 7.400000e+01
      vertex   0.000000e+00 4.000000e+00 7.400000e+01
    endloop
  endfacet
  facet normal 0.000000e+00 1.000000e+00 0.000000e+00
    outer loop
      vertex   -1.900000e+01 4.000000e+00 7.400000e+01
      vertex   -1.900000e+01 4.000000e+00 7.600000e+01
      vertex   0.000000e+00 4.000000e+00 7.400000e+01
    endloop
  endfacet
  facet normal 0.000000e+00 1.000000e+00 -0.000000e+00
    outer loop
      vertex   0.000000e+00 4.000000e+00 7.400000e+01
      vertex   -1.900000e+01 4.000000e+00 7.600000e+01
      vertex   0.000000e+00 4.000000e+00 7.600000e+01
    endloop
  endfacet
  facet normal -0.000000e+00 0.000000e+00 1.000000e+00
    outer loop
      vertex   -1.900000e+01 4.000000e+00 7.600000e+01
      vertex   -1.900000e+01 0.000000e+00 7.600000e+01
      vertex   0.000000e+00 4.000000e+00 7.600000e+01
    endloop
  endfacet
  facet normal 0.000000e+00 0.000000e+00 1.000000e+00
    outer loop
      vertex   0.000000e+00 4.000000e+00 7.600000e+01
      vertex   -1.900000e+01 0.000000e+00 7.600000e+01
      vertex   0.000000e+00 0.000000e+00 7.600000e+01
    endloop
  endfacet
  facet normal -0.000000e+00 1.000000e+00 0.000000e+00
    outer loop
      vertex   -1.900000e+01 0.000000e+00 8.000000e+01
      vertex   0.000000e+00 0.000000e+00 8.000000e+01
      vertex   -1.900000e+01 0.000000e+00 7.600000e+01
    endloop
  endfacet
  facet normal 0.000000e+00 1.000000e+00 0.000000e+00
    outer loop
      vertex   -1.900000e+01 0.000000e+00 7.600000e+01
      vertex   0.000000e+00 0.000000e+00 8.000000e+01
      vertex   0.000000e+00 0.000000e+00 7.600000e+01
    endloop
  endfacet
  facet normal -1.000000e+00 0.000000e+00 0.000000e+00
    outer loop
      vertex   0.000000e+00 0.000000e+00 6.900000e+01
      vertex   0.000000e+00 4.000000e+00 6.900000e+01
      vertex   0.000000e+00 0.000000e+00 6.500000e+01
    endloop
  endfacet
  facet normal -1.000000e+00 0.000000e+00 0.000000e+00
    outer loop
      vertex   0.000000e+00 0.000000e+00 6.500000e+01
      vertex   0.000000e+00 4.000000e+00 6.900000e+01
      vertex   0.000000e+00 5.800000e+01 6.900000e+01
    endloop
  endfacet
  facet normal -1.000000e+00 1.988057e-33 -2.882682e-32
    outer loop
      vertex   0.000000e+00 0.000000e+00 6.500000e+01
      vertex   0.000000e+00 5.800000e+01 6.900000e+01
      vertex   1.232595e-31 6.200000e+01 6.500000e+01
    endloop
  endfacet
  facet normal -1.000000e+00 0.000000e+00 -3.081488e-32
    outer loop
      vertex   1.232595e-31 6.200000e+01 6.500000e+01
      vertex   0.000000e+00 5.800000e+01 6.900000e+01
      vertex   0.000000e+00 6.200000e+01 6.900000e+01
    endloop
  endfacet
  facet normal -1.000000e+00 0.000000e+00 0.000000e+00
    outer loop
      vertex   0.000000e+00 5.800000e+01 6.900000e+01
      vertex   0.000000e+00 4.000000e+00 6.900000e+01
      vertex   0.000000e+00 5.800000e+01 7.100000e+01
    endloop
  endfacet
  facet normal -1.000000e+00 -0.000000e+00 0.000000e+00
    outer loop
      vertex   0.000000e+00 5.800000e+01 7.100000e+01
      vertex   0.000000e+00 4.000000e+00 6.900000e+01
      vertex   0.000000e+00 4.000000e+00 7.100000e+01
    endloop
  endfacet
  facet normal -1.000000e+00 0.000000e+00 0.000000e+00
    outer loop
      vertex   0.000000e+00 5.800000e+01 7.100000e+01
      vertex   0.000000e+00 4.000000e+00 7.100000e+01
      vertex   0.000000e+00 5.800000e+01 7.400000e+01
    endloop
  endfacet
  facet normal -1.000000e+00 -0.000000e+00 0.000000e+00
    outer loop
      vertex   0.000000e+00 5.800000e+01 7.400000e+01
      vertex   0.000000e+00 4.000000e+00 7.100000e+01
      vertex   0.000000e+00 4.000000e+00 7.400000e+01
    endloop
  endfacet
  facet normal -1.000000e+00 0.000000e+00 0.000000e+00
    outer loop
      vertex   0.000000e+00 5.800000e+01 7.400000e+01
      vertex   0.000000e+00 4.000000e+00 7.400000e+01
      vertex   0.000000e+00 5.800000e+01 7.600000e+01
    endloop
  endfacet
  facet normal -1.000000e+00 -0.000000e+00 0.000000e+00
    outer loop
      vertex   0.000000e+00 5.800000e+01 7.600000e+01
      vertex   0.000000e+00 4.000000e+00 7.400000e+01
      vertex   0.000000e+00 4.000000e+00 7.600000e+01
    endloop
  endfacet
  facet normal -1.000000e+00 0.000000e+00 0.000000e+00
    outer loop
      vertex   0.000000e+00 5.800000e+01 7.600000e+01
      vertex   0.000000e+00 4.000000e+00 7.600000e+01
      vertex   0.000000e+00 6.200000e+01 8.000000e+01
    endloop
  endfacet
  facet normal -1.000000e+00 -0.000000e+00 0.000000e+00
    outer loop
      vertex   0.000000e+00 6.200000e+01 8.000000e+01
      vertex   0.000000e+00 4.000000e+00 7.600000e+01
      vertex   0.000000e+00 0.000000e+00 8.000000e+01
    endloop
  endfacet
  facet normal -1.000000e+00 0.000000e+00 0.000000e+00
    outer loop
      vertex   0.000000e+00 0.000000e+00 8.000000e+01
      vertex   0.000000e+00 4.000000e+00 7.600000e+01
      vertex   0.000000e+00 0.000000e+00 7.600000e+01
    endloop
  endfacet
  facet normal -1.000000e+00 0.000000e+00 0.000000e+00
    outer loop
      vertex   0.000000e+00 4.000000e+00 7.100000e+01
      vertex   0.000000e+00 0.000000e+00 7.100000e+01
      vertex   0.000000e+00 4.000000e+00 7.400000e+01
    endloop
  endfacet
  facet normal -1.000000e+00 -0.000000e+00 0.000000e+00
    outer loop
      vertex   0.000000e+00 4.000000e+00 7.400000e+01
      vertex   0.000000e+00 0.000000e+00 7.100000e+01
      vertex   0.000000e+00 0.000000e+00 7.400000e+01
    endloop
  endfacet
  facet normal -1.000000e+00 0.000000e+00 -0.000000e+00
    outer loop
      vertex   0.000000e+00 6.200000e+01 8.000000e+01
      vertex   0.000000e+00 6.200000e+01 7.600000e+01
      vertex   0.000000e+00 5.800000e+01 7.600000e+01
    endloop
  endfacet
  facet normal -1.000000e+00 0.000000e+00 0.000000e+00
    outer loop
      vertex   0.000000e+00 5.800000e+01 7.400000e+01
      vertex   0.000000e+00 6.200000e+01 7.400000e+01
      vertex   0.000000e+00 5.800000e+01 7.100000e+01
    endloop
  endfacet
  facet normal -1.000000e+00 0.000000e+00 0.000000e+00
    outer loop
      vertex   0.000000e+00 5.800000e+01 7.100000e+01
      vertex   0.000000e+00 6.200000e+01 7.400000e+01
      vertex   0.000000e+00 6.200000e+01 7.100000e+01
    endloop
  endfacet
  facet normal 0.000000e+00 -1.000000e+00 0.000000e+00
    outer loop
      vertex   -1.900000e+01 5.800000e+01 7.600000e+01
      vertex   -1.900000e+01 5.800000e+01 7.400000e+01
      vertex   0.000000e+00 5.800000e+01 7.600000e+01
    endloop
  endfacet
  facet normal 0.000000e+00 -1.000000e+00 -0.000000e+00
    outer loop
      vertex   0.000000e+00 5.800000e+01 7.600000e+01
      vertex   -1.900000e+01 5.800000e+01 7.400000e+01
      vertex   0.000000e+00 5.800000e+01 7.400000e+01
    endloop
  endfacet
  facet normal -0.000000e+00 0.000000e+00 1.000000e+00
    outer loop
      vertex   -1.900000e+01 6.200000e+01 7.600000e+01
      vertex   -1.900000e+01 5.800000e+01 7.600000e+01
      vertex   0.000000e+00 6.200000e+01 7.600000e+01
    endloop
  endfacet
  facet normal 0.000000e+00 0.000000e+00 1.000000e+00
    outer loop
      vertex   0.000000e+00 6.200000e+01 7.600000e+01
      vertex   -1.900000e+01 5.800000e+01 7.600000e+01
      vertex   0.000000e+00 5.800000e+01 7.600000e+01
    endloop
  endfacet
  facet normal 0.000000e+00 0.000000e+00 -1.000000e+00
    outer loop
      vertex   -1.900000e+01 5.800000e+01 7.400000e+01
      vertex   -1.900000e+01 6.200000e+01 7.400000e+01
      vertex   0.000000e+00 5.800000e+01 7.400000e+01
    endloop
  endfacet
  facet normal 0.000000e+00 0.000000e+00 -1.000000e+00
    outer loop
      vertex   0.000000e+00 5.800000e+01 7.400000e+01
      vertex   -1.900000e+01 6.200000e+01 7.400000e+01
      vertex   0.000000e+00 6.200000e+01 7.400000e+01
    endloop
  endfacet
  facet normal 0.000000e+00 -1.000000e+00 0.000000e+00
    outer loop
      vertex   -1.900000e+01 6.200000e+01 7.600000e+01
      vertex   0.000000e+00 6.200000e+01 7.600000e+01
      vertex   -1.900000e+01 6.200000e+01 8.000000e+01
    endloop
  endfacet
  facet normal 0.000000e+00 -1.000000e+00 0.000000e+00
    outer loop
      vertex   -1.900000e+01 6.200000e+01 8.000000e+01
      vertex   0.000000e+00 6.200000e+01 7.600000e+01
      vertex   0.000000e+00 6.200000e+01 8.000000e+01
    endloop
  endfacet
  facet normal 0.000000e+00 -1.000000e+00 0.000000e+00
    outer loop
      vertex   -1.900000e+01 5.800000e+01 7.100000e+01
      vertex   -1.900000e+01 5.800000e+01 6.900000e+01
      vertex   0.000000e+00 5.800000e+01 7.100000e+01
    endloop
  endfacet
  facet normal 0.000000e+00 -1.000000e+00 -0.000000e+00
    outer loop
      vertex   0.000000e+00 5.800000e+01 7.100000e+01
      vertex   -1.900000e+01 5.800000e+01 6.900000e+01
      vertex   0.000000e+00 5.800000e+01 6.900000e+01
    endloop
  endfacet
  facet normal -0.000000e+00 0.000000e+00 1.000000e+00
    outer loop
      vertex   -1.900000e+01 6.200000e+01 7.100000e+01
      vertex   -1.900000e+01 5.800000e+01 7.100000e+01
      vertex   0.000000e+00 6.200000e+01 7.100000e+01
    endloop
  endfacet
  facet normal 0.000000e+00 0.000000e+00 1.000000e+00
    outer loop
      vertex   0.000000e+00 6.200000e+01 7.100000e+01
      vertex   -1.900000e+01 5.800000e+01 7.100000e+01
      vertex   0.000000e+00 5.800000e+01 7.100000e+01
    endloop
  endfacet
  facet normal 0.000000e+00 0.000000e+00 -1.000000e+00
    outer loop
      vertex   -1.900000e+01 5.800000e+01 6.900000e+01
      vertex   -1.900000e+01 6.200000e+01 6.900000e+01
      vertex   0.000000e+00 5.800000e+01 6.900000e+01
    endloop
  endfacet
  facet normal 0.000000e+00 0.000000e+00 -1.000000e+00
    outer loop
      vertex   0.000000e+00 5.800000e+01 6.900000e+01
      vertex   -1.900000e+01 6.200000e+01 6.900000e+01
      vertex   0.000000e+00 6.200000e+01 6.900000e+01
    endloop
  endfacet
  facet normal 0.000000e+00 -1.000000e+00 0.000000e+00
    outer loop
      vertex   -1.900000e+01 6.200000e+01 7.100000e+01
      vertex   0.000000e+00 6.200000e+01 7.100000e+01
      vertex   -1.900000e+01 6.200000e+01 7.400000e+01
    endloop
  endfacet
  facet normal 0.000000e+00 -1.000000e+00 0.000000e+00
    outer loop
      vertex   -1.900000e+01 6.200000e+01 7.400000e+01
      vertex   0.000000e+00 6.200000e+01 7.100000e+01
      vertex   0.000000e+00 6.200000e+01 7.400000e+01
    endloop
  endfacet
  facet normal 0.000000e+00 0.000000e+00 1.000000e+00
    outer loop
      vertex   -1.900000e+01 6.200000e+01 8.000000e+01
      vertex   0.000000e+00 6.200000e+01 8.000000e+01
      vertex   -1.900000e+01 6.600000e+01 8.000000e+01
    endloop
  endfacet
  facet normal -0.000000e+00 0.000000e+00 1.000000e+00
    outer loop
      vertex   -1.900000e+01 6.600000e+01 8.000000e+01
      vertex   0.000000e+00 6.200000e+01 8.000000e+01
      vertex   4.000000e+00 6.600000e+01 8.000000e+01
    endloop
  endfacet
  facet normal 0.000000e+00 0.000000e+00 1.000000e+00
    outer loop
      vertex   4.000000e+00 6.600000e+01 8.000000e+01
      vertex   0.000000e+00 6.200000e+01 8.000000e+01
      vertex   4.000000e+00 -4.000000e+00 8.000000e+01
    endloop
  endfacet
  facet normal 0.000000e+00 0.000000e+00 1.000000e+00
    outer loop
      vertex   4.000000e+00 -4.000000e+00 8.000000e+01
      vertex   0.000000e+00 6.200000e+01 8.000000e+01
      vertex   0.000000e+00 0.000000e+00 8.000000e+01
    endloop
  endfacet
  facet normal 0.000000e+00 0.000000e+00 1.000000e+00
    outer loop
      vertex   4.000000e+00 -4.000000e+00 8.000000e+01
      vertex   0.000000e+00 0.000000e+00 8.000000e+01
      vertex   -1.900000e+01 -4.000000e+00 8.000000e+01
    endloop
  endfacet
  facet normal 0.000000e+00 0.000000e+00 1.000000e+00
    outer loop
      vertex   -1.900000e+01 -4.000000e+00 8.000000e+01
      vertex   0.000000e+00 0.000000e+00 8.000000e+01
      vertex   -1.900000e+01 0.000000e+00 8.000000e+01
    endloop
  endfacet
  facet normal 0.000000e+00 0.000000e+00 -1.000000e+00
    outer loop
      vertex   -1.900000e+01 6.600000e+01 6.300000e+01
      vertex   4.000000e+00 6.600000e+01 6.300000e+01
      vertex   -1.900000e+01 -4.000000e+00 6.300000e+01
    endloop
  endfacet
  facet normal 0.000000e+00 0.000000e+00 -1.000000e+00
    outer loop
      vertex   -1.900000e+01 -4.000000e+00 6.300000e+01
      vertex   4.000000e+00 6.600000e+01 6.300000e+01
      vertex   4.000000e+00 -4.000000e+00 6.300000e+01
    endloop
  endfacet
  facet normal 1.000000e+00 0.000000e+00 0.000000e+00
    outer loop
      vertex   4.000000e+00 6.600000e+01 8.000000e+01
      vertex   4.000000e+00 -4.000000e+00 8.000000e+01
      vertex   4.000000e+00 6.600000e+01 6.300000e+01
    endloop
  endfacet
  facet normal 1.000000e+00 0.000000e+00 0.000000e+00
    outer loop
      vertex   4.000000e+00 6.600000e+01 6.300000e+01
      vertex   4.000000e+00 -4.000000e+00 8.000000e+01
      vertex   4.000000e+00 -4.000000e+00 6.300000e+01
    endloop
  endfacet
  facet normal 0.000000e+00 -1.000000e+00 0.000000e+00
    outer loop
      vertex   -1.900000e+01 -4.000000e+00 6.300000e+01
      vertex   4.000000e+00 -4.000000e+00 6.300000e+01
      vertex   -1.900000e+01 -4.000000e+00 8.000000e+01
    endloop
  endfacet
  facet normal 0.000000e+00 -1.000000e+00 0.000000e+00
    outer loop
      vertex   -1.900000e+01 -4.000000e+00 8.000000e+01
      vertex   4.000000e+00 -4.000000e+00 6.300000e+01
      vertex   4.000000e+00 -4.000000e+00 8.000000e+01
    endloop
  endfacet
  facet normal -0.000000e+00 1.000000e+00 0.000000e+00
    outer loop
      vertex   -1.900000e+01 6.600000e+01 8.000000e+01
      vertex   4.000000e+00 6.600000e+01 8.000000e+01
      vertex   -1.900000e+01 6.600000e+01 6.300000e+01
    endloop
  endfacet
  facet normal 0.000000e+00 1.000000e+00 0.000000e+00
    outer loop
      vertex   -1.900000e+01 6.600000e+01 6.300000e+01
      vertex   4.000000e+00 6.600000e+01 8.000000e+01
      vertex   4.000000e+00 6.600000e+01 6.300000e+01
    endloop
  endfacet
endsolid
